<svg xmlns="http://www.w3.org/2000/svg" viewBox="0 0 690 203.04"><defs><style>.cls-1{fill:none;}.cls-2{fill:#fff;}</style></defs><title>Asset 2</title><g id="Layer_2" data-name="Layer 2"><g id="Layer_1-2" data-name="Layer 1"><path class="cls-1" d="M0,203V0H690V203Zm84-88c0,34.43,27.81,60.58,59.7,61.56,37,1.13,64-28.12,64.33-60.67.34-35.28-28-61.39-59.78-62.4C111.63,52.37,83.8,81.81,84,115Zm340.09-8.56c0-.74-.08-1.09-.08-1.44q0-23.22,0-46.44c0-1.74-.46-2.19-2.2-2.19l-14.76,0c-2.59,0-2.6,0-2.6,2.6q0,55.62,0,111.24c0,2,.23,2.22,2.31,2.22,4.4,0,8.8,0,13.2,0,3.69,0,3.11-.51,3.12-3.11,0-1.94,0-3.87,0-5.83,2.05,1.83,4,3.61,6,5.3a25.33,25.33,0,0,0,8.07,4.11,30.85,30.85,0,0,0,6.13,1.21,35.68,35.68,0,0,0,13.76-.66,28.15,28.15,0,0,0,5.05-1.57,45.9,45.9,0,0,0,6.15-3.49,33.37,33.37,0,0,0,7.41-6.88,36.81,36.81,0,0,0,6.52-12.44c.7-2.27,1.72-4.58,1.77-6.88.14-5.83.83-11.68-.74-17.49a56.2,56.2,0,0,0-3.48-9.41,27.35,27.35,0,0,0-5.39-8,60,60,0,0,0-5.69-4.95,32.41,32.41,0,0,0-7.51-4,44.82,44.82,0,0,0-9.8-2.37,19.81,19.81,0,0,0-5-.07,36.2,36.2,0,0,0-10.86,2.49,27,27,0,0,0-8.27,5C426.23,104.42,425.28,105.33,424.08,106.48ZM241.47,117.95q0,26,0,52c0,2.14.44,2.59,2.6,2.6h15.6c2.08,0,2.39-.32,2.39-2.44q0-20,0-40.07c0-2.45-.57-2.75,2.69-2.73,13.76.08,27.52,0,41.27,0,.36,0,.72,0,1.08,0,2-.1,2.38-.48,2.38-2.46q0-6.48,0-13c0-1.75-.2-2-1.91-2q-21.78,0-43.55,0c-1.9,0-2,0-2-1.9q0-12.3,0-24.6c0-1.83,0-1.87,1.9-1.87q23.1,0,46.19,0c1.47,0,2.26-.22,2.27-2.23q0-6.78,0-13.56c0-1.74-.57-2.19-2.15-2.19q-32.94.07-65.87,0c-2.32,0-2.95.61-2.94,2.89C241.49,83.63,241.47,100.79,241.47,117.95ZM384,172.11v-1.86c0-12.24,0-24.47,0-36.71,0-4.18-.33-8.36-.4-12.54a23.58,23.58,0,0,0-1.61-7,22.93,22.93,0,0,0-6.41-9.77,28.51,28.51,0,0,0-9.34-5.77,42.25,42.25,0,0,0-12-2.38c-2.91-.21-5.86.33-8.8.41-4,.12-7.72,1.36-11.44,2.57a26.75,26.75,0,0,0-5.36,2.48A90.78,90.78,0,0,0,321,106.6c-2,1.46-1.87,1.58-.34,3.39l.31.37c2.37,2.84,4.74,5.69,7.12,8.52,1,1.24,1.53,1.19,2.82.16a45.42,45.42,0,0,1,4.38-3.18,20,20,0,0,1,6.66-2.93,60.54,60.54,0,0,1,6.43-1.3,26.49,26.49,0,0,1,5.27.48,15.38,15.38,0,0,1,8.16,3.54,10.61,10.61,0,0,1,3.67,8.78c0,.88-.32,1.2-1.19,1.21-1.72,0-3.44.14-5.15.16a104.45,104.45,0,0,0-14.64,1.09c-.71.11-1.42.18-2.12.34-2,.45-4,.91-6,1.4a32.15,32.15,0,0,0-4.33,1.22,45.75,45.75,0,0,0-5.34,2.6c-3.36,1.9-6.48,4.13-8.54,7.52a17.1,17.1,0,0,0-2.75,9.19c0,.92,0,1.84,0,2.76a18.55,18.55,0,0,0,3.85,11.9,24.43,24.43,0,0,0,13.78,9.13,37.56,37.56,0,0,0,22.53-.9,25.77,25.77,0,0,0,9-6.15,4.1,4.1,0,0,0,.51-.92c1.44,2.43.55,4.77,1.06,7.18a22.36,22.36,0,0,0,2.7.33q6.18.06,12.36,0A23.11,23.11,0,0,0,384,172.11ZM592.4,135.56c.18,2.45.32,5,.56,7.46a14.46,14.46,0,0,0,.58,2.27c.43,1.62.77,3.28,1.31,4.86a20.28,20.28,0,0,0,1.65,3.54,48.92,48.92,0,0,0,4.08,6.61A37.78,37.78,0,0,0,620.16,173a46,46,0,0,0,7,1.16,42.54,42.54,0,0,0,15.08-.61c2.28-.54,4.53-1.23,6.76-2,4-1.32,7.23-3.94,10.38-6.64a1.43,1.43,0,0,0,.08-2.27c-1-1.1-2.11-2.09-3.16-3.14-2.25-2.26-4.52-4.5-6.73-6.8-1-1.09-1.61-1.11-2.77-.15a23.13,23.13,0,0,1-4.37,3.29,22.85,22.85,0,0,1-14.37,1.67,14.65,14.65,0,0,1-4.83-1.91,18.68,18.68,0,0,1-8.12-9.46,28.52,28.52,0,0,1-2-7c-.46-4.72-.4-9.49,1.61-14a24.09,24.09,0,0,1,2.45-4.73c2.25-3,4.85-5.66,8.66-6.68a28.07,28.07,0,0,1,4.88-1.17,19.06,19.06,0,0,1,4.8.46,20.61,20.61,0,0,1,4.42,1.21,17.06,17.06,0,0,1,6.4,4.76c.62.73,1.11.73,1.85.08,3.75-3.3,7.54-6.55,11.32-9.81a1.49,1.49,0,0,0,.13-2.27c-.56-.64-1.15-1.27-1.77-1.86A32.05,32.05,0,0,0,644.94,98a61.29,61.29,0,0,0-9.8-2,32.73,32.73,0,0,0-10.92.73,56.76,56.76,0,0,0-6.39,1.81,28.48,28.48,0,0,0-5.55,2.2,67.64,67.64,0,0,0-6.81,4.82,26,26,0,0,0-6.81,7.72c-1.67,2.94-3.6,5.77-4.3,9.2-.37,1.83-1.15,3.6-1.41,5.44C592.61,130.45,592.57,133,592.4,135.56Zm-72.81-27.64c0-.47-.11-.94-.11-1.4,0-2,.07-3.92.07-5.88s-.22-2.29-2.26-2.29q-7.2,0-14.4,0c-2.17,0-2.41.25-2.41,2.43q0,34.61,0,69.22c0,2.1.41,2.5,2.56,2.5q7.44,0,14.88,0c1.82,0,2.11-.34,2.15-2.14.27-13.21-.52-26.43.41-39.64a18.28,18.28,0,0,1,2.25-7.73,17.08,17.08,0,0,1,9.47-8.1c3.81-1.33,7.56-.78,11.35-.68,1.62,0,1.94.06,1.94-1.54q0-7,0-14c0-1.73-.73-2.62-2.49-2.59a62.53,62.53,0,0,0-7.1.47,19.76,19.76,0,0,0-11,5.54C523,103.8,521.42,105.86,519.59,107.91Zm36.77,27.43h0q0,17.39,0,34.78c0,2.17.22,2.37,2.42,2.37,4.8,0,9.6,0,14.39,0,2.19,0,2.77-.68,2.77-2.7q0-34.42,0-68.84c0-2.06-.51-2.59-2.63-2.6-5.12,0-10.23,0-15.35-.05-1.28,0-1.61.38-1.61,1.79Q556.35,117.71,556.35,135.34Zm-2.52-61.58a10.15,10.15,0,0,0,3.86,8.91,12,12,0,0,0,8.79,3.17,14.52,14.52,0,0,0,5.65-1.69,10.12,10.12,0,0,0,5.55-6.06,17.5,17.5,0,0,0,.36-5.81,10.32,10.32,0,0,0-7.34-9.07,25.3,25.3,0,0,0-6.15-.58c-3.41,0-6.08,1.73-8.22,4.2C554.56,68.86,553.46,71.23,553.84,73.76Z"/><path d="M84,115c-.19-33.23,27.64-62.67,64.26-61.51,31.82,1,60.12,27.12,59.78,62.4-.31,32.55-27.35,61.8-64.33,60.67C111.8,175.62,84,149.47,84,115Zm100.13,20c3,0,5.91,0,8.78,0,1.13,0,1.53-.35,1.53-1.52q-.05-20.28,0-40.56c0-1-.29-1.4-1.35-1.38q-6.48.07-13,0a1.4,1.4,0,0,0-1.55,1.12q-2.07,6.17-4.17,12.34c-1,2.85-2,5.69-3,8.54-.65,1.85-1.32,3.7-2.08,5.83a8.89,8.89,0,0,1-.8-1.31c-1.61-4.48-3.18-9-4.78-13.45-1.4-3.92-2.87-7.81-4.24-11.74a1.58,1.58,0,0,0-1.77-1.31c-4.16.06-8.32,0-12.48,0-.39,0-.77,0-1.15.07a2,2,0,0,0-.11.42q0,21,0,42c0,.75.32,1,1,.95,2.68,0,5.36,0,8,0,.81,0,1.07-.34,1-1.09,0-.4,0-.8,0-1.2-.12-6.1-.25-12.21-.34-18.31,0-2.8,0-5.6,0-8.4,0-.33,0-.67.09-1.36a7,7,0,0,1,.74,1.11c1.1,3,2.16,6,3.26,9.05,1.23,3.37,2.5,6.72,3.74,10.09,1.1,3,2.2,6,3.25,9.08a1.38,1.38,0,0,0,1.6,1,45.51,45.51,0,0,1,4.68,0c1.14.07,1.62-.43,2-1.43.87-2.47,1.82-4.91,2.75-7.36,1.24-3.25,2.51-6.49,3.72-9.76,1.38-3.73,2.71-7.47,4.07-11.21.06-.16.32-.26.57-.45Zm-55.75-31.6c1.92-2.14,3.94-4.38,6-6.63.47-.53.21-.85-.28-1.25a24.18,24.18,0,0,0-13.1-4.94,26.86,26.86,0,0,0-13.81,2,21.5,21.5,0,0,0-7,4.76,20.8,20.8,0,0,0-5.71,11.41c-1,6.2-.21,12.06,3.39,17.34,4.5,6.6,11.17,9.2,18.77,9.87a35.94,35.94,0,0,0,9.71-.84,32.51,32.51,0,0,0,8-2.55,1.29,1.29,0,0,0,.9-1.33q0-10.38,0-20.76c0-.81-.29-1.16-1.13-1.15q-8,0-16,0c-.84,0-1.11.32-1.1,1.14,0,2,.06,4,0,6,0,1,.33,1.24,1.25,1.21,1.88-.05,3.76,0,5.64,0,1.46,0,1.6.16,1.6,1.56,0,1.72,0,3.44,0,5.16a1.39,1.39,0,0,1-1.26,1.66,22.2,22.2,0,0,1-8.13.55c-6.23-.9-9.76-5.06-10.66-10.64a15.1,15.1,0,0,1,.52-7.43,12.79,12.79,0,0,1,2.93-5,13,13,0,0,1,6.84-3.63,13.69,13.69,0,0,1,8.29,1A33.64,33.64,0,0,1,128.37,103.41Z"/><path d="M424.08,106.48c1.2-1.15,2.15-2.06,3.11-3a27,27,0,0,1,8.27-5A36.2,36.2,0,0,1,446.32,96a19.81,19.81,0,0,1,5,.07,44.82,44.82,0,0,1,9.8,2.37,32.41,32.41,0,0,1,7.51,4,60,60,0,0,1,5.69,4.95,27.35,27.35,0,0,1,5.39,8,56.2,56.2,0,0,1,3.48,9.41c1.56,5.81.88,11.66.74,17.49-.06,2.31-1.07,4.61-1.77,6.88a36.81,36.81,0,0,1-6.52,12.44,33.37,33.37,0,0,1-7.41,6.88,45.9,45.9,0,0,1-6.15,3.49,28.15,28.15,0,0,1-5.05,1.57,35.68,35.68,0,0,1-13.76.66,30.85,30.85,0,0,1-6.13-1.21,25.33,25.33,0,0,1-8.07-4.11c-2-1.69-3.91-3.47-6-5.3,0,2,0,3.9,0,5.83,0,2.6.57,3.07-3.12,3.11-4.4,0-8.8,0-13.2,0-2.07,0-2.31-.23-2.31-2.22q0-55.62,0-111.24c0-2.58,0-2.59,2.6-2.6l14.76,0c1.74,0,2.2.45,2.2,2.19q0,23.22,0,46.44C424,105.39,424,105.74,424.08,106.48Zm20.17,51.36a16.21,16.21,0,0,0,12.08-3.94,20,20,0,0,0,5.88-8.13,31.38,31.38,0,0,0,2.18-8.8,24.77,24.77,0,0,0-.69-8.27,23.52,23.52,0,0,0-4.47-9.39,17.54,17.54,0,0,0-12.33-6.79,18.83,18.83,0,0,0-7.65.42,21.91,21.91,0,0,0-5.56,2.49,21.61,21.61,0,0,0-8,9.5,28,28,0,0,0-2.31,9.61c-.1,1.82.54,3.68.63,5.53.12,2.51,1.29,4.63,2.28,6.79a19.59,19.59,0,0,0,6,7.15A16.56,16.56,0,0,0,444.25,157.84Z"/><path d="M241.47,117.95c0-17.16,0-34.32,0-51.47,0-2.28.62-2.9,2.94-2.89q32.94,0,65.87,0c1.58,0,2.15.45,2.15,2.19q0,6.78,0,13.56c0,2-.8,2.24-2.27,2.23q-23.1-.06-46.19,0c-1.85,0-1.89,0-1.9,1.87q0,12.3,0,24.6c0,1.89.07,1.9,2,1.9q21.78,0,43.55,0c1.71,0,1.91.22,1.91,2q0,6.48,0,13c0,2-.38,2.36-2.38,2.46-.36,0-.72,0-1.08,0-13.76,0-27.52,0-41.27,0-3.26,0-2.68.28-2.69,2.73q0,20,0,40.07c0,2.12-.3,2.44-2.39,2.44h-15.6c-2.16,0-2.6-.45-2.6-2.6Q241.46,143.92,241.47,117.95Z"/><path d="M384,172.11a23.11,23.11,0,0,1-2.83.37q-6.18.06-12.36,0a22.36,22.36,0,0,1-2.7-.33c-.51-2.41.38-4.75-1.06-7.18a4.1,4.1,0,0,1-.51.92,25.77,25.77,0,0,1-9,6.15,37.56,37.56,0,0,1-22.53.9,24.43,24.43,0,0,1-13.78-9.13,18.55,18.55,0,0,1-3.85-11.9c0-.92,0-1.84,0-2.76A17.1,17.1,0,0,1,318.2,140c2.06-3.4,5.18-5.62,8.54-7.52a45.75,45.75,0,0,1,5.34-2.6,32.15,32.15,0,0,1,4.33-1.22c2-.5,4-1,6-1.4.7-.16,1.41-.23,2.12-.34a104.45,104.45,0,0,1,14.64-1.09c1.72,0,3.44-.14,5.15-.16.87,0,1.16-.33,1.19-1.21a10.61,10.61,0,0,0-3.67-8.78,15.38,15.38,0,0,0-8.16-3.54,26.49,26.49,0,0,0-5.27-.48,60.54,60.54,0,0,0-6.43,1.3,20,20,0,0,0-6.66,2.93,45.42,45.42,0,0,0-4.38,3.18c-1.29,1-1.77,1.08-2.82-.16-2.39-2.83-4.75-5.68-7.12-8.52l-.31-.37c-1.53-1.8-1.62-1.93.34-3.39a90.78,90.78,0,0,1,7.64-5.07A26.75,26.75,0,0,1,334,99c3.72-1.22,7.45-2.46,11.44-2.57,2.94-.09,5.89-.62,8.8-.41a42.25,42.25,0,0,1,12,2.38,28.51,28.51,0,0,1,9.34,5.77A22.93,22.93,0,0,1,382,114a23.58,23.58,0,0,1,1.61,7c.08,4.18.38,8.36.4,12.54.06,12.24,0,24.47,0,36.71Zm-26.25-32.81a38.28,38.28,0,0,0-16,2.87c-2.71,1.16-5.24,2.62-6.32,5.82a7.7,7.7,0,0,0,3,9.06c3.24,2,6.84,2.24,10.47,2a30.93,30.93,0,0,0,6.16-1.19,12.92,12.92,0,0,0,7.42-5.62,19.86,19.86,0,0,0,3.06-12c0-.7-.3-.9-.93-.9C362.31,139.3,360,139.29,357.76,139.29Z"/><path d="M592.4,135.56c.18-2.58.21-5.11.56-7.59.26-1.84,1-3.61,1.41-5.44.7-3.42,2.63-6.26,4.3-9.2a26,26,0,0,1,6.81-7.72,67.64,67.64,0,0,1,6.81-4.82,28.48,28.48,0,0,1,5.55-2.2,56.76,56.76,0,0,1,6.39-1.81A32.73,32.73,0,0,1,635.15,96a61.29,61.29,0,0,1,9.8,2,32.05,32.05,0,0,1,12.87,7.14c.62.59,1.21,1.21,1.77,1.86a1.49,1.49,0,0,1-.13,2.27c-3.78,3.26-7.57,6.51-11.32,9.81-.73.65-1.23.65-1.85-.08a17.06,17.06,0,0,0-6.4-4.76,20.61,20.61,0,0,0-4.42-1.21,19.06,19.06,0,0,0-4.8-.46,28.07,28.07,0,0,0-4.88,1.17c-3.81,1-6.41,3.69-8.66,6.68a24.09,24.09,0,0,0-2.45,4.73c-2,4.47-2.07,9.24-1.61,14a28.52,28.52,0,0,0,2,7,18.68,18.68,0,0,0,8.12,9.46,14.65,14.65,0,0,0,4.83,1.91,22.85,22.85,0,0,0,14.37-1.67,23.13,23.13,0,0,0,4.37-3.29c1.16-1,1.73-.94,2.77.15,2.21,2.29,4.48,4.54,6.73,6.8,1,1.05,2.16,2,3.16,3.14a1.43,1.43,0,0,1-.08,2.27c-3.15,2.7-6.36,5.32-10.38,6.64-2.23.73-4.48,1.43-6.76,2a42.54,42.54,0,0,1-15.08.61,46,46,0,0,1-7-1.16,37.78,37.78,0,0,1-19.58-12.69,48.92,48.92,0,0,1-4.08-6.61,20.28,20.28,0,0,1-1.65-3.54c-.54-1.59-.88-3.24-1.31-4.86A14.46,14.46,0,0,1,593,143C592.72,140.52,592.57,138,592.4,135.56Z"/><path d="M519.59,107.91c1.83-2.05,3.42-4.11,5.3-5.87a19.76,19.76,0,0,1,11-5.54A62.53,62.53,0,0,1,543,96c1.76,0,2.49.86,2.49,2.59q0,7,0,14c0,1.6-.33,1.58-1.94,1.54-3.78-.1-7.54-.65-11.35.68a17.08,17.08,0,0,0-9.47,8.1,18.28,18.28,0,0,0-2.25,7.73c-.93,13.21-.13,26.43-.41,39.64,0,1.79-.33,2.13-2.15,2.14q-7.44,0-14.88,0c-2.15,0-2.56-.4-2.56-2.5q0-34.61,0-69.22c0-2.18.24-2.42,2.41-2.43q7.2,0,14.4,0c2,0,2.26.23,2.26,2.29s-.06,3.92-.07,5.88C519.48,107,519.55,107.44,519.59,107.91Z"/><path d="M556.35,135.34q0-17.63,0-35.26c0-1.42.34-1.8,1.61-1.79,5.12,0,10.23,0,15.35.05,2.12,0,2.63.54,2.63,2.6q0,34.42,0,68.84c0,2-.58,2.68-2.77,2.7-4.8,0-9.59,0-14.39,0-2.2,0-2.42-.21-2.42-2.37q0-17.39,0-34.78Z"/><path d="M553.84,73.76c-.37-2.53.72-4.91,2.48-6.93,2.14-2.47,4.81-4.21,8.22-4.2a25.3,25.3,0,0,1,6.15.58A10.32,10.32,0,0,1,578,72.28a17.5,17.5,0,0,1-.36,5.81,10.12,10.12,0,0,1-5.55,6.06,14.52,14.52,0,0,1-5.65,1.69,12,12,0,0,1-8.79-3.17A10.15,10.15,0,0,1,553.84,73.76Z"/><path class="cls-2" d="M184.12,135V104.83c-.26.2-.51.29-.57.45-1.37,3.73-2.69,7.48-4.07,11.21-1.21,3.26-2.48,6.5-3.72,9.76-.93,2.45-1.88,4.89-2.75,7.36-.35,1-.83,1.5-2,1.43a45.51,45.51,0,0,0-4.68,0,1.38,1.38,0,0,1-1.6-1c-1-3-2.15-6.06-3.25-9.08-1.23-3.37-2.5-6.72-3.74-10.09-1.1-3-2.16-6-3.26-9.05a7,7,0,0,0-.74-1.11c0,.69-.09,1-.09,1.36,0,2.8,0,5.6,0,8.4.09,6.1.23,12.21.34,18.31,0,.4,0,.8,0,1.2.06.74-.2,1.1-1,1.09-2.68,0-5.36,0-8,0-.69,0-1-.19-1-.95q0-21,0-42a2,2,0,0,1,.11-.42c.38,0,.77-.07,1.15-.07,4.16,0,8.32,0,12.48,0a1.58,1.58,0,0,1,1.77,1.31c1.37,3.93,2.84,7.82,4.24,11.74,1.61,4.48,3.18,9,4.78,13.45a8.89,8.89,0,0,0,.8,1.31c.76-2.13,1.42-4,2.08-5.83,1-2.84,2-5.68,3-8.54q2.11-6.16,4.17-12.34a1.4,1.4,0,0,1,1.55-1.12q6.48.07,13,0c1.06,0,1.35.34,1.35,1.38q0,20.28,0,40.56c0,1.18-.4,1.54-1.53,1.52C190,135,187.15,135,184.12,135Z"/><path class="cls-2" d="M128.37,103.41a33.64,33.64,0,0,0-4.31-2.54,13.69,13.69,0,0,0-8.29-1,13,13,0,0,0-6.84,3.63,12.79,12.79,0,0,0-2.93,5,15.1,15.1,0,0,0-.52,7.43c.9,5.58,4.43,9.74,10.66,10.64a22.2,22.2,0,0,0,8.13-.55,1.39,1.39,0,0,0,1.26-1.66c-.07-1.72,0-3.44,0-5.16,0-1.4-.15-1.55-1.6-1.56-1.88,0-3.76,0-5.64,0-.92,0-1.28-.23-1.25-1.21.07-2,0-4,0-6,0-.82.26-1.14,1.1-1.14q8,0,16,0c.83,0,1.13.35,1.13,1.15q0,10.38,0,20.76a1.29,1.29,0,0,1-.9,1.33,32.51,32.51,0,0,1-8,2.55,35.94,35.94,0,0,1-9.71.84c-7.6-.68-14.27-3.28-18.77-9.87-3.61-5.28-4.34-11.14-3.39-17.34a20.8,20.8,0,0,1,5.71-11.41,21.5,21.5,0,0,1,7-4.76,26.86,26.86,0,0,1,13.81-2A24.18,24.18,0,0,1,134,95.53c.49.4.75.72.28,1.25C132.31,99,130.29,101.27,128.37,103.41Z"/><path class="cls-1" d="M444.25,157.84A16.56,16.56,0,0,1,432.3,154a19.59,19.59,0,0,1-6-7.15c-1-2.16-2.16-4.29-2.28-6.79-.09-1.85-.73-3.7-.63-5.53a28,28,0,0,1,2.31-9.61,21.61,21.61,0,0,1,8-9.5,21.91,21.91,0,0,1,5.56-2.49,18.83,18.83,0,0,1,7.65-.42,17.54,17.54,0,0,1,12.33,6.79,23.52,23.52,0,0,1,4.47,9.39,24.77,24.77,0,0,1,.69,8.27,31.38,31.38,0,0,1-2.18,8.8,20,20,0,0,1-5.88,8.13A16.21,16.21,0,0,1,444.25,157.84Z"/><path class="cls-1" d="M357.76,139.29c2.28,0,4.55,0,6.83,0,.64,0,.9.2.93.9a19.86,19.86,0,0,1-3.06,12,12.92,12.92,0,0,1-7.42,5.62,30.93,30.93,0,0,1-6.16,1.19c-3.63.25-7.23,0-10.47-2a7.7,7.7,0,0,1-3-9.06c1.08-3.2,3.61-4.66,6.32-5.82A38.28,38.28,0,0,1,357.76,139.29Z"/></g></g></svg>