<?xml version="1.0" encoding="utf-8"?>
<!-- Generator: Adobe Illustrator 21.0.2, SVG Export Plug-In . SVG Version: 6.00 Build 0)  -->
<svg version="1.1" id="Layer_1" xmlns="http://www.w3.org/2000/svg" xmlns:xlink="http://www.w3.org/1999/xlink" x="0px" y="0px"
	 viewBox="0 0 690 203" style="enable-background:new 0 0 690 203;" xml:space="preserve">
<style type="text/css">
	.st0{fill:none;}
	.st1{fill:#FFFFFF;}
</style>
<title>Asset 2</title>
<g id="Layer_1-2">
	<path class="st0" d="M-24.4,190.2v-203h690v203H-24.4z M59.6,102.2c0,34.4,27.8,60.6,59.7,61.6c37,1.1,64-28.1,64.3-60.7
		c0.3-35.3-28-61.4-59.8-62.4C87.3,39.6,59.4,69,59.6,102.2z M399.7,93.6c0-0.7-0.1-1.1-0.1-1.4c0-15.5,0-31,0-46.4
		c0-1.7-0.5-2.2-2.2-2.2h-14.8c-2.6,0-2.6,0-2.6,2.6c0,37.1,0,74.2,0,111.2c0,2,0.2,2.2,2.3,2.2c4.4,0,8.8,0,13.2,0
		c3.7,0,3.1-0.5,3.1-3.1c0-1.9,0-3.9,0-5.8c2,1.8,4,3.6,6,5.3c2.4,1.8,5.2,3.2,8.1,4.1c2,0.6,4.1,1,6.1,1.2
		c4.6,0.7,9.3,0.5,13.8-0.7c1.7-0.4,3.4-0.9,5-1.6c2.1-1,4.2-2.2,6.1-3.5c2.8-1.9,5.3-4.2,7.4-6.9c3-3.7,5.2-7.9,6.5-12.4
		c0.7-2.3,1.7-4.6,1.8-6.9c0.1-5.8,0.8-11.7-0.7-17.5c-0.9-3.2-2-6.4-3.5-9.4c-1.3-3-3.1-5.7-5.4-8c-1.8-1.8-3.7-3.4-5.7-4.9
		c-2.3-1.7-4.8-3-7.5-4c-3.2-1.2-6.5-2-9.8-2.4c-1.7-0.2-3.3-0.3-5-0.1c-3.7,0.3-7.4,1.1-10.9,2.5c-3,1.2-5.8,2.8-8.3,5
		C401.9,91.6,400.9,92.5,399.7,93.6L399.7,93.6z M217.1,105.1c0,17.3,0,34.7,0,52c0,2.1,0.4,2.6,2.6,2.6h15.6c2.1,0,2.4-0.3,2.4-2.4
		c0-13.3,0-26.7,0-40.1c0-2.4-0.6-2.8,2.7-2.7c13.8,0.1,27.5,0,41.3,0c0.4,0,0.7,0,1.1,0c2-0.1,2.4-0.5,2.4-2.5c0-4.3,0-8.7,0-13
		c0-1.8-0.2-2-1.9-2c-14.5,0-29,0-43.5,0c-1.9,0-2,0-2-1.9c0-8.2,0-16.4,0-24.6c0-1.8,0-1.9,1.9-1.9c15.4,0,30.8,0,46.2,0
		c1.5,0,2.3-0.2,2.3-2.2c0-4.5,0-9,0-13.6c0-1.7-0.6-2.2-2.1-2.2c-22,0-43.9,0-65.9,0c-2.3,0-2.9,0.6-2.9,2.9
		C217.1,70.8,217.1,88,217.1,105.1z M359.6,159.3v-1.9c0-12.2,0-24.5,0-36.7c0-4.2-0.3-8.4-0.4-12.5c-0.2-2.4-0.7-4.8-1.6-7
		c-1.3-3.8-3.5-7.1-6.4-9.8c-2.7-2.5-5.9-4.5-9.3-5.8c-3.9-1.4-7.9-2.2-12-2.4c-2.9-0.2-5.9,0.3-8.8,0.4c-4,0.1-7.7,1.4-11.4,2.6
		c-1.9,0.6-3.7,1.5-5.4,2.5c-2.6,1.6-5.2,3.2-7.6,5.1c-2,1.5-1.9,1.6-0.3,3.4l0.3,0.4c2.4,2.8,4.7,5.7,7.1,8.5
		c1,1.2,1.5,1.2,2.8,0.2c1.4-1.1,2.9-2.2,4.4-3.2c2-1.4,4.3-2.4,6.7-2.9c2.1-0.5,4.3-1,6.4-1.3c1.8,0,3.5,0.1,5.3,0.5
		c3,0.4,5.8,1.6,8.2,3.5c2.5,2.2,3.9,5.4,3.7,8.8c0,0.9-0.3,1.2-1.2,1.2c-1.7,0-3.4,0.1-5.1,0.2c-4.9,0-9.8,0.4-14.6,1.1
		c-0.7,0.1-1.4,0.2-2.1,0.3c-2,0.4-4,0.9-6,1.4c-1.5,0.3-2.9,0.7-4.3,1.2c-1.8,0.8-3.6,1.6-5.3,2.6c-3.4,1.9-6.5,4.1-8.5,7.5
		c-1.8,2.7-2.7,5.9-2.8,9.2c0,0.9,0,1.8,0,2.8c-0.1,4.3,1.2,8.5,3.9,11.9c3.4,4.6,8.3,7.8,13.8,9.1c7.4,2,15.3,1.7,22.5-0.9
		c3.4-1.4,6.5-3.5,9-6.1c0.2-0.3,0.4-0.6,0.5-0.9c1.4,2.4,0.5,4.8,1.1,7.2c0.9,0.2,1.8,0.3,2.7,0.3c4.1,0,8.2,0,12.4,0
		C357.8,159.6,358.7,159.5,359.6,159.3z M568,122.8c0.2,2.4,0.3,5,0.6,7.5c0.1,0.8,0.3,1.5,0.6,2.3c0.4,1.6,0.8,3.3,1.3,4.9
		c0.4,1.2,1,2.4,1.7,3.5c1.2,2.3,2.5,4.5,4.1,6.6c5,6.2,11.9,10.6,19.6,12.7c2.3,0.6,4.6,1,7,1.2c5,0.7,10.1,0.5,15.1-0.6
		c2.3-0.5,4.5-1.2,6.8-2c4-1.3,7.2-3.9,10.4-6.6c0.6-0.5,0.8-1.4,0.3-2c-0.1-0.1-0.2-0.2-0.3-0.3c-1-1.1-2.1-2.1-3.2-3.1
		c-2.2-2.3-4.5-4.5-6.7-6.8c-1-1.1-1.6-1.1-2.8-0.1c-1.3,1.3-2.8,2.4-4.4,3.3c-4.5,2.1-9.5,2.7-14.4,1.7c-1.7-0.3-3.3-1-4.8-1.9
		c-3.7-2.1-6.6-5.5-8.1-9.5c-1-2.2-1.6-4.6-2-7c-0.5-4.7-0.4-9.5,1.6-14c0.6-1.7,1.5-3.2,2.5-4.7c2.2-3,4.8-5.7,8.7-6.7
		c1.6-0.5,3.2-0.9,4.9-1.2c1.6-0.1,3.2,0.1,4.8,0.5c1.5,0.2,3,0.6,4.4,1.2c2.5,1.1,4.7,2.7,6.4,4.8c0.6,0.7,1.1,0.7,1.8,0.1
		c3.8-3.3,7.5-6.6,11.3-9.8c0.7-0.5,0.8-1.4,0.3-2.1c0-0.1-0.1-0.1-0.2-0.2c-0.6-0.6-1.2-1.3-1.8-1.9c-3.7-3.3-8.1-5.8-12.9-7.1
		c-3.2-0.9-6.5-1.6-9.8-2c-3.7-0.4-7.3-0.1-10.9,0.7c-2.2,0.5-4.3,1.1-6.4,1.8c-1.9,0.5-3.8,1.3-5.5,2.2c-2.4,1.5-4.6,3.1-6.8,4.8
		c-2.8,2.1-5.1,4.7-6.8,7.7c-1.7,2.9-3.6,5.8-4.3,9.2c-0.4,1.8-1.2,3.6-1.4,5.4C568.2,117.6,568.2,120.2,568,122.8z M495.2,95.1
		c0-0.5-0.1-0.9-0.1-1.4c0-2,0.1-3.9,0.1-5.9s-0.2-2.3-2.3-2.3c-4.8,0-9.6,0-14.4,0c-2.2,0-2.4,0.2-2.4,2.4c0,23.1,0,46.1,0,69.2
		c0,2.1,0.4,2.5,2.6,2.5c5,0,9.9,0,14.9,0c1.8,0,2.1-0.3,2.2-2.1c0.3-13.2-0.5-26.4,0.4-39.6c0.2-2.7,0.9-5.4,2.2-7.7
		c2-3.8,5.4-6.7,9.5-8.1c3.8-1.3,7.6-0.8,11.3-0.7c1.6,0,1.9,0.1,1.9-1.5c0-4.7,0-9.3,0-14c0-1.7-0.7-2.6-2.5-2.6
		c-2.4,0-4.7,0.2-7.1,0.5c-4.2,0.6-8,2.6-11,5.5C498.6,91,497,93.1,495.2,95.1L495.2,95.1z M532,122.5L532,122.5
		c0,11.6,0,23.2,0,34.8c0,2.2,0.2,2.4,2.4,2.4c4.8,0,9.6,0,14.4,0c2.2,0,2.8-0.7,2.8-2.7c0-22.9,0-45.9,0-68.8
		c0-2.1-0.5-2.6-2.6-2.6c-5.1,0-10.2,0-15.3-0.1c-1.3,0-1.6,0.4-1.6,1.8C532,99,532,110.8,532,122.5L532,122.5z M529.5,61
		c-0.3,3.4,1.1,6.8,3.9,8.9c2.4,2.2,5.6,3.3,8.8,3.2c2-0.2,3.9-0.7,5.7-1.7c2.6-1.1,4.6-3.3,5.5-6.1c0.4-1.9,0.6-3.9,0.4-5.8
		c-0.3-4.2-3.3-7.9-7.3-9.1c-2-0.4-4.1-0.6-6.2-0.6c-3.4,0-6.1,1.7-8.2,4.2C530.2,56.1,529.1,58.4,529.5,61L529.5,61z"/>
	<path d="M59.6,102.2C59.4,69,87.3,39.5,123.9,40.7c31.8,1,60.1,27.1,59.8,62.4c-0.3,32.6-27.4,61.8-64.3,60.7
		C87.4,162.8,59.6,136.7,59.6,102.2z M159.8,122.2c3,0,5.9,0,8.8,0c1.1,0,1.5-0.4,1.5-1.5c0-13.5,0-27,0-40.6c0-1-0.3-1.4-1.4-1.4
		c-4.3,0-8.7,0-13,0c-0.7-0.1-1.4,0.4-1.6,1.1c-1.4,4.1-2.8,8.2-4.2,12.3c-1,2.8-2,5.7-3,8.5c-0.6,1.8-1.3,3.7-2.1,5.8
		c-0.3-0.4-0.6-0.9-0.8-1.3c-1.6-4.5-3.2-9-4.8-13.4c-1.4-3.9-2.9-7.8-4.2-11.7c-0.1-0.8-0.9-1.4-1.8-1.3c-4.2,0.1-8.3,0-12.5,0
		c-0.4,0-0.8,0-1.1,0.1c-0.1,0.1-0.1,0.3-0.1,0.4c0,14,0,28,0,42c0,0.8,0.3,1,1,0.9c2.7,0,5.4,0,8,0c0.8,0,1.1-0.3,1-1.1
		c0-0.4,0-0.8,0-1.2c-0.1-6.1-0.2-12.2-0.3-18.3c0-2.8,0-5.6,0-8.4c0-0.3,0-0.7,0.1-1.4c0.3,0.3,0.5,0.7,0.7,1.1
		c1.1,3,2.2,6,3.3,9.1c1.2,3.4,2.5,6.7,3.7,10.1c1.1,3,2.2,6,3.2,9.1c0.2,0.7,0.9,1.1,1.6,1c1.6-0.1,3.1-0.1,4.7,0
		c1.1,0.1,1.6-0.4,2-1.4c0.9-2.5,1.8-4.9,2.8-7.4c1.2-3.2,2.5-6.5,3.7-9.8c1.4-3.7,2.7-7.5,4.1-11.2c0.1-0.2,0.3-0.3,0.6-0.4
		L159.8,122.2z M104,90.6c1.9-2.1,3.9-4.4,6-6.6c0.5-0.5,0.2-0.8-0.3-1.2c-3.8-2.9-8.3-4.6-13.1-4.9c-4.7-0.6-9.5,0.1-13.8,2
		c-2.6,1.1-5,2.7-7,4.8c-3.1,3.1-5,7.1-5.7,11.4c-1,6.2-0.2,12.1,3.4,17.3c4.5,6.6,11.2,9.2,18.8,9.9c3.3,0.2,6.5-0.1,9.7-0.8
		c2.8-0.5,5.5-1.4,8-2.6c0.6-0.2,0.9-0.7,0.9-1.3c0-6.9,0-13.8,0-20.8c0-0.8-0.3-1.2-1.1-1.2c-5.3,0-10.7,0-16,0
		c-0.8,0-1.1,0.3-1.1,1.1c0,2,0.1,4,0,6c0,1,0.3,1.2,1.2,1.2c1.9-0.1,3.8,0,5.6,0c1.5,0,1.6,0.2,1.6,1.6c0,1.7,0,3.4,0,5.2
		c0.2,0.8-0.3,1.5-1.1,1.6c-0.1,0-0.1,0-0.2,0c-2.7,0.7-5.4,0.9-8.1,0.6c-6.2-0.9-9.8-5.1-10.7-10.6c-0.4-2.5-0.3-5,0.5-7.4
		c0.6-1.9,1.6-3.6,2.9-5c1.9-1.9,4.2-3.1,6.8-3.6c2.8-0.5,5.7-0.2,8.3,1C101.2,88.8,102.6,89.7,104,90.6L104,90.6z"/>
	<path d="M399.7,93.7c1.2-1.2,2.1-2.1,3.1-3c2.4-2.2,5.2-3.8,8.3-5c3.5-1.4,7.1-2.2,10.9-2.5c1.7-0.2,3.3-0.2,5,0.1
		c3.3,0.4,6.6,1.2,9.8,2.4c2.7,1,5.2,2.3,7.5,4c2,1.5,3.9,3.2,5.7,4.9c2.3,2.3,4.1,5,5.4,8c1.4,3,2.6,6.2,3.5,9.4
		c1.6,5.8,0.9,11.7,0.7,17.5c-0.1,2.3-1.1,4.6-1.8,6.9c-1.4,4.5-3.6,8.8-6.5,12.4c-2.1,2.7-4.6,5-7.4,6.9c-2,1.3-4,2.5-6.1,3.5
		c-1.6,0.7-3.3,1.2-5,1.6c-4.5,1.1-9.2,1.3-13.8,0.7c-2.1-0.2-4.1-0.6-6.1-1.2c-2.9-0.9-5.6-2.3-8.1-4.1c-2-1.7-3.9-3.5-6-5.3
		c0,2,0,3.9,0,5.8c0,2.6,0.6,3.1-3.1,3.1c-4.4,0-8.8,0-13.2,0c-2.1,0-2.3-0.2-2.3-2.2c0-37.1,0-74.2,0-111.2c0-2.6,0-2.6,2.6-2.6
		h14.8c1.7,0,2.2,0.5,2.2,2.2c0,15.5,0,31,0,46.4C399.6,92.6,399.6,92.9,399.7,93.7z M419.9,145c4.4,0.4,8.8-1,12.1-3.9
		c2.6-2.2,4.6-5,5.9-8.1c1.1-2.8,1.9-5.8,2.2-8.8c0.2-2.8,0-5.6-0.7-8.3c-0.8-3.4-2.3-6.6-4.5-9.4c-3-3.9-7.5-6.3-12.3-6.8
		c-2.6-0.4-5.2-0.2-7.6,0.4c-2,0.6-3.8,1.4-5.6,2.5c-3.5,2.3-6.3,5.6-8,9.5c-1.3,3-2.1,6.3-2.3,9.6c-0.1,1.8,0.5,3.7,0.6,5.5
		c0.1,2.5,1.3,4.6,2.3,6.8c1.4,2.8,3.5,5.3,6,7.1C411.2,144,415.5,145.4,419.9,145z"/>
	<path d="M217.1,105.1c0-17.2,0-34.3,0-51.5c0-2.3,0.6-2.9,2.9-2.9c22,0,43.9,0,65.9,0c1.6,0,2.1,0.4,2.1,2.2c0,4.5,0,9,0,13.6
		c0,2-0.8,2.2-2.3,2.2c-15.4,0-30.8,0-46.2,0c-1.9,0-1.9,0-1.9,1.9c0,8.2,0,16.4,0,24.6c0,1.9,0.1,1.9,2,1.9c14.5,0,29,0,43.5,0
		c1.7,0,1.9,0.2,1.9,2c0,4.3,0,8.7,0,13c0,2-0.4,2.4-2.4,2.5c-0.4,0-0.7,0-1.1,0c-13.8,0-27.5,0-41.3,0c-3.3,0-2.7,0.3-2.7,2.7
		c0,13.3,0,26.7,0,40.1c0,2.1-0.3,2.4-2.4,2.4h-15.6c-2.2,0-2.6-0.4-2.6-2.6C217.1,139.8,217.1,122.5,217.1,105.1z"/>
	<path d="M359.6,159.3c-0.9,0.2-1.9,0.3-2.8,0.4c-4.1,0-8.2,0-12.4,0c-0.9-0.1-1.8-0.2-2.7-0.3c-0.5-2.4,0.4-4.8-1.1-7.2
		c-0.1,0.3-0.3,0.6-0.5,0.9c-2.5,2.7-5.6,4.8-9,6.1c-7.2,2.6-15.1,2.9-22.5,0.9c-5.5-1.3-10.4-4.6-13.8-9.1c-2.6-3.4-4-7.6-3.9-11.9
		c0-0.9,0-1.8,0-2.8c0-3.3,1-6.4,2.8-9.1c2.1-3.4,5.2-5.6,8.5-7.5c1.7-1,3.5-1.8,5.3-2.6c1.4-0.5,2.9-0.9,4.3-1.2c2-0.5,4-1,6-1.4
		c0.7-0.2,1.4-0.2,2.1-0.3c4.8-0.7,9.7-1.1,14.6-1.1c1.7,0,3.4-0.1,5.1-0.2c0.9,0,1.2-0.3,1.2-1.2c0.2-3.3-1.1-6.6-3.7-8.8
		c-2.3-2-5.2-3.2-8.2-3.5c-1.7-0.3-3.5-0.5-5.3-0.5c-2.2,0.3-4.3,0.8-6.4,1.3c-2.4,0.6-4.6,1.6-6.7,2.9c-1.5,1-3,2-4.4,3.2
		c-1.3,1-1.8,1.1-2.8-0.2c-2.4-2.8-4.8-5.7-7.1-8.5l-0.3-0.4c-1.5-1.8-1.6-1.9,0.3-3.4c2.5-1.8,5-3.5,7.6-5.1c1.7-1,3.5-1.9,5.3-2.6
		c3.7-1.2,7.5-2.5,11.4-2.6c2.9-0.1,5.9-0.6,8.8-0.4c4.1,0.2,8.1,1,12,2.4c3.5,1.3,6.6,3.3,9.3,5.8c3,2.7,5.2,6.1,6.4,9.8
		c0.9,2.2,1.4,4.6,1.6,7c0.1,4.2,0.4,8.4,0.4,12.5c0.1,12.2,0,24.5,0,36.7L359.6,159.3z M333.4,126.5c-5.5-0.2-10.9,0.8-16,2.9
		c-2.7,1.2-5.2,2.6-6.3,5.8c-1.2,3.4,0,7.1,3,9.1c3.2,2,6.8,2.2,10.5,2c2.1-0.2,4.2-0.6,6.2-1.2c3.1-0.9,5.7-2.9,7.4-5.6
		c2.3-3.6,3.3-7.8,3.1-12c0-0.7-0.3-0.9-0.9-0.9C337.9,126.5,335.6,126.5,333.4,126.5L333.4,126.5z"/>
	<path d="M568,122.8c0.2-2.6,0.2-5.1,0.6-7.6c0.3-1.8,1-3.6,1.4-5.4c0.7-3.4,2.6-6.3,4.3-9.2c1.7-3,4-5.6,6.8-7.7
		c2.2-1.7,4.4-3.4,6.8-4.8c1.8-0.9,3.6-1.7,5.5-2.2c2.1-0.7,4.2-1.3,6.4-1.8c3.6-0.9,7.3-1.1,10.9-0.8c3.3,0.4,6.6,1.1,9.8,2
		c4.8,1.3,9.2,3.8,12.9,7.1c0.6,0.6,1.2,1.2,1.8,1.9c0.6,0.6,0.6,1.5,0.1,2.1c-0.1,0.1-0.1,0.1-0.2,0.2c-3.8,3.3-7.6,6.5-11.3,9.8
		c-0.7,0.7-1.2,0.7-1.8-0.1c-1.7-2.1-3.9-3.7-6.4-4.8c-1.4-0.6-2.9-1-4.4-1.2c-1.6-0.4-3.2-0.5-4.8-0.5c-1.7,0.2-3.3,0.6-4.9,1.2
		c-3.8,1-6.4,3.7-8.7,6.7c-1,1.5-1.8,3.1-2.5,4.7c-2,4.5-2.1,9.2-1.6,14c0.4,2.4,1,4.8,2,7c1.5,4,4.4,7.3,8.1,9.5
		c1.5,0.9,3.1,1.6,4.8,1.9c4.8,1,9.9,0.4,14.4-1.7c1.6-0.9,3-2,4.4-3.3c1.2-1,1.7-0.9,2.8,0.1c2.2,2.3,4.5,4.5,6.7,6.8
		c1,1.1,2.2,2,3.2,3.1c0.6,0.5,0.7,1.4,0.2,2c-0.1,0.1-0.2,0.2-0.3,0.3c-3.2,2.7-6.4,5.3-10.4,6.6c-2.2,0.7-4.5,1.4-6.8,2
		c-5,1.1-10.1,1.3-15.1,0.6c-2.4-0.2-4.7-0.6-7-1.2c-7.7-2.1-14.6-6.5-19.6-12.7c-1.5-2.1-2.9-4.3-4.1-6.6c-0.7-1.1-1.2-2.3-1.7-3.5
		c-0.5-1.6-0.9-3.2-1.3-4.9c-0.2-0.8-0.4-1.5-0.5-2.3C568.3,127.7,568.2,125.2,568,122.8z"/>
	<path d="M495.2,95.1c1.8-2.1,3.4-4.1,5.3-5.9c3-3,6.8-4.9,11-5.5c2.4-0.3,4.7-0.5,7.1-0.5c1.8,0,2.5,0.9,2.5,2.6c0,4.7,0,9.3,0,14
		c0,1.6-0.3,1.6-1.9,1.5c-3.8-0.1-7.5-0.7-11.3,0.7c-4.1,1.4-7.4,4.3-9.5,8.1c-1.3,2.4-2.1,5-2.2,7.7c-0.9,13.2-0.1,26.4-0.4,39.6
		c0,1.8-0.3,2.1-2.2,2.1c-5,0-9.9,0-14.9,0c-2.1,0-2.6-0.4-2.6-2.5c0-23.1,0-46.1,0-69.2c0-2.2,0.2-2.4,2.4-2.4c4.8,0,9.6,0,14.4,0
		c2,0,2.3,0.2,2.3,2.3s-0.1,3.9-0.1,5.9C495.1,94.2,495.2,94.6,495.2,95.1z"/>
	<path d="M532,122.5c0-11.8,0-23.5,0-35.3c0-1.4,0.3-1.8,1.6-1.8c5.1,0,10.2,0,15.3,0.1c2.1,0,2.6,0.5,2.6,2.6c0,22.9,0,45.9,0,68.8
		c0,2-0.6,2.7-2.8,2.7c-4.8,0-9.6,0-14.4,0c-2.2,0-2.4-0.2-2.4-2.4C532,145.7,532,134.1,532,122.5L532,122.5z"/>
	<path d="M529.5,61c-0.4-2.5,0.7-4.9,2.5-6.9c2.1-2.5,4.8-4.2,8.2-4.2c2.1-0.1,4.1,0.1,6.2,0.6c4.1,1.2,7,4.8,7.3,9.1
		c0.2,1.9,0.1,3.9-0.4,5.8c-0.9,2.7-2.9,4.9-5.5,6.1c-1.7,0.9-3.7,1.5-5.7,1.7c-3.2,0.2-6.4-1-8.8-3.2
		C530.6,67.7,529.1,64.4,529.5,61z"/>
	<path class="st1" d="M159.7,122.2V92c-0.3,0.2-0.5,0.3-0.6,0.4c-1.4,3.7-2.7,7.5-4.1,11.2c-1.2,3.3-2.5,6.5-3.7,9.8
		c-0.9,2.4-1.9,4.9-2.8,7.4c-0.4,1-0.8,1.5-2,1.4c-1.6-0.1-3.1-0.1-4.7,0c-0.7,0.1-1.4-0.3-1.6-1c-1-3-2.1-6.1-3.2-9.1
		c-1.2-3.4-2.5-6.7-3.7-10.1c-1.1-3-2.2-6-3.3-9.1c-0.2-0.4-0.5-0.8-0.7-1.1c0,0.7-0.1,1-0.1,1.4c0,2.8,0,5.6,0,8.4
		c0.1,6.1,0.2,12.2,0.3,18.3c0,0.4,0,0.8,0,1.2c0.1,0.7-0.2,1.1-1,1.1c-2.7,0-5.4,0-8,0c-0.7,0-1-0.2-1-0.9c0-14,0-28,0-42
		c0-0.1,0.1-0.3,0.1-0.4c0.4,0,0.8-0.1,1.1-0.1c4.2,0,8.3,0,12.5,0c0.8-0.1,1.6,0.5,1.8,1.3c1.4,3.9,2.8,7.8,4.2,11.7
		c1.6,4.5,3.2,9,4.8,13.4c0.2,0.5,0.5,0.9,0.8,1.3c0.8-2.1,1.4-4,2.1-5.8c1-2.8,2-5.7,3-8.5c1.4-4.1,2.8-8.2,4.2-12.3
		c0.1-0.7,0.8-1.2,1.6-1.1c4.3,0,8.7,0,13,0c1.1,0,1.4,0.3,1.4,1.4c0,13.5,0,27,0,40.6c0,1.2-0.4,1.5-1.5,1.5
		C165.6,122.2,162.8,122.2,159.7,122.2z"/>
	<path class="st1" d="M104,90.6c-1.4-1-2.8-1.8-4.3-2.5c-2.6-1.2-5.5-1.5-8.3-1c-2.6,0.5-5,1.8-6.8,3.6c-1.3,1.4-2.3,3.1-2.9,5
		c-0.8,2.4-1,4.9-0.5,7.4c0.9,5.6,4.4,9.7,10.7,10.6c2.7,0.3,5.5,0.1,8.1-0.6c0.8-0.1,1.3-0.7,1.3-1.5c0-0.1,0-0.1,0-0.2
		c-0.1-1.7,0-3.4,0-5.2c0-1.4-0.2-1.6-1.6-1.6c-1.9,0-3.8,0-5.6,0c-0.9,0-1.3-0.2-1.2-1.2c0.1-2,0-4,0-6c0-0.8,0.3-1.1,1.1-1.1
		c5.3,0,10.7,0,16,0c0.8,0,1.1,0.3,1.1,1.2c0,6.9,0,13.8,0,20.8c0,0.6-0.3,1.2-0.9,1.3c-2.5,1.2-5.2,2-8,2.6c-3.2,0.7-6.5,1-9.7,0.8
		c-7.6-0.7-14.3-3.3-18.8-9.9c-3.6-5.3-4.3-11.1-3.4-17.3c0.7-4.3,2.7-8.3,5.7-11.4c2-2,4.4-3.7,7-4.8c4.3-1.9,9.1-2.6,13.8-2
		c4.7,0.4,9.2,2.1,13,5c0.5,0.4,0.8,0.7,0.3,1.2C107.9,86.2,105.9,88.5,104,90.6z"/>
	<path class="st0" d="M419.9,145c-4.3,0.3-8.6-1-12-3.8c-2.5-1.9-4.6-4.3-6-7.1c-1-2.2-2.2-4.3-2.3-6.8c-0.1-1.9-0.7-3.7-0.6-5.5
		c0.2-3.3,1-6.6,2.3-9.6c1.7-3.9,4.5-7.2,8-9.5c1.7-1.1,3.6-1.9,5.6-2.5c2.5-0.7,5.1-0.8,7.6-0.4c4.9,0.4,9.3,2.9,12.3,6.8
		c2.2,2.8,3.7,6,4.5,9.4c0.7,2.7,0.9,5.5,0.7,8.3c-0.3,3-1,6-2.2,8.8c-1.2,3.2-3.3,6-5.9,8.1C428.6,144,424.3,145.4,419.9,145z"/>
	<path class="st0" d="M333.4,126.5c2.3,0,4.5,0,6.8,0c0.6,0,0.9,0.2,0.9,0.9c0.3,4.2-0.8,8.4-3.1,12c-1.7,2.7-4.3,4.7-7.4,5.6
		c-2,0.6-4.1,1-6.2,1.2c-3.6,0.2-7.2,0-10.5-2c-3-2-4.2-5.7-3-9.1c1.1-3.2,3.6-4.7,6.3-5.8C322.4,127.2,327.9,126.3,333.4,126.5z"/>
</g>
</svg>
